# xmcd
#
# Track frame offsets:
#	150
#	12028
#	23100
#	32763
#	42875
#	54575
#	64800
#	77325
#	86925
#	98100
#	109430
#	120275
#	130975
#	146650
#	161425
#	174975
#	184075
#	196200
#	207320
#	221400
#	234075
#	246025
#	258500
#	275275
#	285725
#	301600
#	311875
#	322725
#
# Disc length: 4443
#
# Revision: 1
# Processed by: cddbd v1.5.1PL0 Copyright (c) Steve Scherf et al.
# Submitted via: EasyCDDAExtractor 7.1.2.1
# Normalized: r0:DSETVAR1
#
DISCID=7911591c
DTITLE=Various Artist - The Sweet Sound Of Sucess
DYEAR=1994
DGENRE=Blues
TTITLE0=Esquires - You'Ve Got The Power
TTITLE1=O' Dell, Brooks - If I Had You --
TTITLE2=Diplomats - There's Still A Tomorrow --
TTITLE3=Big Maybelle - The Same Old Story --
TTITLE4=Shirelles - Don'T Say Goodnight And Mean Goodbye --
TTITLE5=Lenny Miles - Invisible --
TTITLE6=Roscoe Robinson - That's Enough --
TTITLE7=Churck/Brown*Maxine Jackson - Baby Take Me --
TTITLE8=Candy and The Kissis - Keep On Searchin' --
TTITLE9=Nella Dodds - Finders Keepers Losers Weepers --
TTITLE10=Timmy Shaw - If I Catch You --
TTITLE11=Jackson, Chuck - Hand It Over --
TTITLE12=Freddie Hughes - He'S No Good --
TTITLE13=Theola Kilgore - The Love Of My Man --
TTITLE14=Chuck Jackson - Look Over Your Shoulder --
TTITLE15=Maxine Brown - One Step At A Time --
TTITLE16=Tommy Hunt - The Door Is Open --
TTITLE17=Tammy Montgomery - It'S Mine --
TTITLE18=Judy Clay - Lonely People Do Foolish Things --
TTITLE19=Roscoe Robinson - How Much Pressure --
TTITLE20=Nella Dodds - Come See About Me --
TTITLE21=L.C. Cooke - Half A Man --
TTITLE22=Jackie Ross - This World'S In A Hell Of A Shape --
TTITLE23=Bessie Banks - Do It Now --
TTITLE24=Maxine Brown - Ask Me --
TTITLE25=Maxine Brown and Chuck Jackson - Can'T Let You Out Of My Sight --
TTITLE26=Timmy Shaw - Gonna Send You Back To Georgia --
TTITLE27=Lenny Miles - Don'T Believe Him Donna --
EXTD=
EXTT0=
EXTT1=
EXTT2=
EXTT3=
EXTT4=
EXTT5=
EXTT6=
EXTT7=
EXTT8=
EXTT9=
EXTT10=
EXTT11=
EXTT12=
EXTT13=
EXTT14=
EXTT15=
EXTT16=
EXTT17=
EXTT18=
EXTT19=
EXTT20=
EXTT21=
EXTT22=
EXTT23=
EXTT24=
EXTT25=
EXTT26=
EXTT27=
PLAYORDER=
